<svg xmlns="http://www.w3.org/2000/svg" id="Calque_1" viewBox="46.64 0 76.74 33.86"><defs><style>.cls-1{fill:#212529;}.cls-2{fill:#202428;}.cls-3{fill:#39939e;}</style></defs><path class="cls-3" d="m61.58,5.93l-5.91,5.91-5.91-5.91L55.66.02l5.91,5.91Zm-13.54,6.87l-1.4,1.4,1.4,1.4,1.4-1.4-1.4-1.4Z"/><path class="cls-1" d="m50.21,7.84l-2.81,2.8,2.8,2.8,2.8-2.8-2.78-2.8Zm3.46,3.46l-3.93,3.93,3.93,3.93,3.93-3.93-3.93-3.93Zm4.64-.72l-1.95,1.97,1.97,1.97,1.97-1.97-1.98-1.97Z"/><path class="cls-1" d="m72.36,19.57c-.41-1.01-.82-2.02-1.23-3.02h-8.57c-.41,1.01-.82,2.02-1.23,3.02h-4.62c.45-1.11.91-2.22,1.36-3.33,2.54-2.46,5.08-4.91,7.62-7.37-.57,1.39-1.13,2.78-1.7,4.18h5.71c-.95-2.34-1.9-4.68-2.86-7.03-.39.95-.77,1.9-1.16,2.85-1.07-1.15-2.14-2.31-3.21-3.46.69-1.69,1.38-3.38,2.07-5.07h4.62c2.61,6.41,5.23,12.82,7.84,19.24h-4.65Z"/><path class="cls-1" d="m78.15,9.94c0-5.4,4.7-9.94,10.22-9.94,2.91,0,5.6,1.23,7.48,3.22l-3,2.69c-1.12-1.29-2.72-2.16-4.48-2.16-3.22,0-5.96,2.86-5.96,6.19s2.74,6.22,5.96,6.22c1.76,0,3.36-.87,4.48-2.16l3,2.69c-1.88,1.96-4.56,3.22-7.48,3.22-5.52,0-10.22-4.56-10.22-9.97Z"/><path class="cls-1" d="m98.45.34h4.14v19.24h-4.14V.34Z"/><path class="cls-1" d="m105.68,9.94c0-5.4,4.7-9.94,10.22-9.94,2.91,0,5.6,1.23,7.48,3.22l-3,2.69c-1.12-1.29-2.72-2.16-4.48-2.16-3.22,0-5.96,2.86-5.96,6.19s2.74,6.22,5.96,6.22c1.76,0,3.36-.87,4.48-2.16l3,2.69c-1.88,1.96-4.56,3.22-7.48,3.22-5.52,0-10.22-4.56-10.22-9.97Z"/><path class="cls-2" d="m49.47,28.14c.19-.22.42-.4.67-.53.25-.13.54-.2.86-.2.27,0,.53.05.75.16.22.11.42.26.57.47s.27.45.37.73c.08.29.12.61.12.98,0,.39-.05.73-.14,1.05-.09.32-.23.59-.41.81-.17.22-.4.4-.64.52-.25.12-.54.18-.86.18-.15,0-.3-.01-.42-.04-.13-.03-.24-.07-.36-.13-.11-.06-.2-.12-.3-.2-.09-.08-.17-.17-.25-.27l-.04.4c-.02.13-.1.19-.23.19h-.59v-6.92h.92v2.81h-.02Zm0,2.94c.15.19.32.34.49.42.17.08.37.11.57.11.43,0,.75-.15.99-.46.23-.31.35-.76.35-1.37,0-.57-.1-.98-.31-1.24-.2-.26-.49-.4-.87-.4-.26,0-.49.06-.68.17-.19.12-.37.29-.54.51v2.26Z"/><path class="cls-2" d="m57.87,27.49l-2.65,6.15c-.03.07-.06.12-.11.16s-.11.06-.2.06h-.68l.88-1.9-1.96-4.47h.79c.08,0,.14.02.18.06.04.04.07.08.09.12l1.21,2.86c.02.07.05.14.07.21.02.07.04.14.06.21.02-.07.04-.15.07-.22.02-.07.05-.14.08-.21l1.17-2.86c.02-.05.06-.1.1-.13.05-.03.1-.05.16-.05h.72Z"/><path class="cls-2" d="m65.42,30.66c.07,0,.13.03.18.08l.5.54c-.27.34-.61.6-1.02.78-.4.18-.89.27-1.45.27-.5,0-.96-.08-1.35-.25-.4-.17-.74-.41-1.03-.72-.29-.31-.5-.67-.65-1.1s-.22-.89-.22-1.4.08-.98.25-1.41c.17-.43.41-.78.71-1.1.31-.31.67-.55,1.1-.71.43-.17.9-.25,1.42-.25s.95.08,1.32.24c.38.16.7.38.97.64l-.42.59s-.06.07-.09.1c-.04.03-.09.04-.16.04s-.14-.03-.22-.08c-.07-.06-.17-.12-.29-.18-.11-.06-.26-.12-.44-.18-.17-.05-.4-.08-.67-.08-.32,0-.61.05-.88.16-.26.11-.5.27-.69.48-.19.2-.35.46-.45.75-.11.3-.16.63-.16,1,0,.39.05.72.16,1.02.11.3.25.55.44.75s.4.36.65.47c.25.11.52.16.8.16.17,0,.33-.01.47-.03.14-.02.26-.05.39-.09.12-.04.22-.09.34-.15.1-.06.21-.14.32-.23.03-.03.06-.05.1-.07-.01-.03.03-.04.07-.04Z"/><path class="cls-2" d="m72.77,32.26h-1.27v-2.96h-3.18v2.96h-1.27v-6.78h1.27v2.92h3.18v-2.92h1.27v6.78Z"/><path class="cls-2" d="m80.1,32.26h-.98c-.11,0-.2-.03-.26-.08-.07-.05-.12-.12-.15-.2l-.51-1.38h-2.81l-.51,1.38c-.02.07-.07.14-.15.19-.07.06-.16.09-.26.09h-.98l2.67-6.78h1.29l2.66,6.78Zm-4.39-2.57h2.16l-.82-2.26c-.04-.1-.08-.21-.12-.36-.04-.13-.09-.29-.13-.45-.04.16-.09.31-.13.45-.04.13-.08.25-.12.36l-.82,2.26Z"/><path class="cls-2" d="m82.11,29.87v2.39h-1.26v-6.78h2.21c.46,0,.85.05,1.18.16.34.11.6.25.82.45.22.19.38.42.48.68s.15.56.15.88-.05.63-.16.91c-.11.27-.27.51-.49.7-.22.19-.49.35-.82.46-.33.11-.71.16-1.15.16h-.96Zm0-.99h.95c.23,0,.44-.03.6-.08.17-.06.32-.14.43-.24.11-.11.19-.23.25-.4.06-.15.08-.33.08-.52,0-.18-.03-.35-.08-.49-.06-.14-.14-.27-.25-.38-.11-.1-.25-.18-.43-.23-.17-.05-.38-.08-.6-.08h-.95v2.42Z"/><path class="cls-2" d="m90.31,26.71c-.03.07-.07.11-.12.14-.04.03-.1.04-.16.04s-.13-.02-.21-.07c-.08-.05-.17-.1-.27-.16-.1-.06-.23-.11-.38-.16-.14-.05-.32-.07-.51-.07-.17,0-.33.02-.46.06-.13.04-.23.1-.33.17-.09.07-.15.16-.2.27-.04.1-.06.22-.06.35,0,.16.04.3.13.4s.2.19.36.27c.14.07.32.14.5.2.18.06.38.12.57.19.19.07.39.14.57.23s.36.2.5.34c.14.13.26.31.36.5s.13.44.13.72c0,.31-.05.59-.15.87-.1.26-.25.5-.46.7s-.45.36-.74.47c-.3.11-.62.17-1,.17-.21,0-.43-.02-.64-.06-.21-.04-.41-.1-.6-.18s-.38-.17-.54-.29c-.16-.11-.32-.23-.45-.37l.37-.6s.07-.08.12-.11c.05-.03.1-.04.16-.04.08,0,.16.03.25.09s.19.13.33.21c.12.08.26.15.44.21.16.06.37.09.6.09.36,0,.64-.08.84-.25.19-.17.3-.42.3-.73,0-.17-.04-.33-.13-.44-.09-.11-.2-.2-.36-.29-.14-.08-.32-.14-.5-.19s-.38-.11-.57-.17-.39-.14-.57-.22c-.18-.09-.36-.2-.5-.35s-.26-.32-.36-.53c-.09-.21-.13-.47-.13-.78,0-.24.05-.49.15-.72s.24-.44.43-.62c.19-.18.42-.33.69-.44.27-.11.59-.16.95-.16.4,0,.77.06,1.11.18.34.12.62.3.87.53l-.31.59Z"/><path class="cls-2" d="m91.04,25.47h1.02c.11,0,.2.03.26.08.07.05.12.12.15.2l1.6,4.14c.05.13.1.29.15.45.05.16.09.33.14.51.07-.36.16-.68.26-.96l1.59-4.14c.03-.07.08-.13.15-.19.07-.06.16-.09.26-.09h1.02l-2.74,6.78h-1.14l-2.74-6.78Z"/><path class="cls-2" d="m99.8,32.26h-1.26v-6.78h1.26v6.78Z"/><path class="cls-2" d="m104.95,26.71c-.03.07-.07.11-.12.14-.04.03-.1.04-.16.04s-.13-.02-.21-.07c-.08-.05-.17-.1-.27-.16-.1-.06-.23-.11-.38-.16-.14-.05-.32-.07-.51-.07-.17,0-.33.02-.46.06-.13.04-.23.1-.33.17-.09.07-.15.16-.2.27-.04.1-.06.22-.06.35,0,.16.04.3.13.4.09.1.2.19.36.27.14.07.32.14.5.2.18.06.38.12.57.19.19.07.39.14.57.23.18.09.36.2.5.34.14.13.26.31.36.5s.13.44.13.72c0,.31-.05.59-.15.87-.1.26-.25.5-.46.7-.2.2-.45.36-.74.47-.3.11-.62.17-1,.17-.21,0-.43-.02-.64-.06-.21-.04-.41-.1-.6-.18-.19-.08-.38-.17-.54-.29-.16-.11-.32-.23-.45-.37l.37-.6s.08-.08.12-.11c.05-.03.1-.04.16-.04.08,0,.16.03.25.09.09.06.19.13.33.21.12.08.26.15.44.21.16.06.37.09.6.09.36,0,.64-.08.83-.25.19-.17.3-.42.3-.73,0-.17-.04-.33-.13-.44-.09-.11-.2-.2-.36-.29-.14-.08-.32-.14-.5-.19-.18-.05-.38-.11-.57-.17-.19-.06-.39-.14-.57-.22-.18-.09-.36-.2-.5-.35s-.26-.32-.36-.53c-.09-.21-.13-.47-.13-.78,0-.24.05-.49.14-.72.1-.23.24-.44.43-.62.19-.18.42-.33.69-.44.27-.11.59-.16.95-.16.4,0,.77.06,1.11.18.34.12.62.3.87.53l-.3.59Z"/><path class="cls-2" d="m107.77,32.26h-1.26v-6.78h1.26v6.78Z"/><path class="cls-2" d="m115.8,28.87c0,.5-.08.96-.24,1.38-.16.43-.4.79-.7,1.1-.31.31-.66.55-1.09.72-.42.17-.89.26-1.41.26s-.98-.08-1.41-.26c-.43-.17-.78-.42-1.09-.72-.31-.31-.54-.67-.7-1.1s-.24-.89-.24-1.38.08-.96.24-1.38.4-.79.7-1.1c.31-.31.66-.55,1.09-.72s.9-.26,1.41-.26.98.09,1.41.26c.42.17.78.42,1.09.72.3.31.53.67.7,1.1.16.43.24.89.24,1.38Zm-1.29,0c0-.38-.05-.7-.15-1s-.24-.55-.43-.75c-.18-.2-.41-.37-.67-.48-.26-.11-.56-.16-.9-.16s-.63.05-.9.16c-.26.11-.49.26-.68.48-.18.2-.33.46-.43.75s-.15.63-.15,1,.05.7.15,1,.24.55.43.75c.18.2.42.37.68.47.26.11.56.16.9.16s.63-.05.9-.16c.26-.11.49-.26.67-.47.18-.2.33-.46.43-.75s.15-.63.15-1Z"/><path class="cls-2" d="m117.6,25.48s.07.01.1.03c.03.01.06.03.08.06.03.03.06.06.09.1l3.56,4.54c-.01-.11-.02-.21-.03-.33,0-.1-.01-.2-.01-.3v-4.12h1.11v6.78h-.65c-.1,0-.18-.02-.24-.05-.06-.03-.13-.09-.19-.17l-3.54-4.52c.01.1.02.2.02.3,0,.1.01.19.01.26v4.16h-1.11v-6.78h.66c.06.02.1.03.14.03Z"/></svg>